<svg xmlns="http://www.w3.org/2000/svg" viewBox="0 0 500 500"><defs><style>.b6bc4dd8-31b5-47e8-8b43-df5f9c5f8670{fill:#fff;}.fbd6baf4-c658-42e3-9752-caf15fcae36b{fill:#243f66;}</style></defs><g id="b5f11511-fcbb-4733-a081-512b8c172a26" data-name="Layer 2"><g id="b26a89a0-cbea-4c2b-8651-ef9474412135" data-name="Layer 5"><rect class="b6bc4dd8-31b5-47e8-8b43-df5f9c5f8670" width="500" height="500" rx="61.36441"/><path class="fbd6baf4-c658-42e3-9752-caf15fcae36b" d="M344.05505,116.46593A99.95884,99.95884,0,0,0,321.5605,85.75645a106.38232,106.38232,0,0,0-69.31021-27.65056h-.0175c-.75145-.035-1.47686-.035-2.22831-.035a106.46391,106.46391,0,0,0-71.565,27.68555,99.51021,99.51021,0,0,0-22.4858,30.70948,88.48738,88.48738,0,0,0-8.50317,38.66175v189.194a92.61265,92.61265,0,0,0,8.22356,39.21265,99.31118,99.31118,0,0,0,22.21495,30.98,98.04807,98.04807,0,0,0,32.63183,20.29248,112.97787,112.97787,0,0,0,78.95826,0,102.3294,102.3294,0,0,0,16.91887-8.29365,21.4005,21.4005,0,0,0,1.65181,3.39965c.18349.31449.367.6294.58546.93493a24.61357,24.61357,0,0,0,3.49566,4.16006,26.738,26.738,0,0,0,3.17242,2.63924,24.1175,24.1175,0,0,0,2.52552,1.57287l.01749.0175c.66419.35844,1.34586.68189,2.03629.96992.69043.27993,1.38939.5334,2.10606.75188a22.96019,22.96019,0,0,0,6.75534.96992,25.371,25.371,0,0,0,7.05255-.96992c.32345-.09644.63794-.201.95264-.306.47174-.166.93494-.34094,1.39814-.533a21.64539,21.64539,0,0,0,3.94136-2.15875c.27971-.19245.55943-.393.83018-.59442a26.42422,26.42422,0,0,0,2.70922-2.35931,24.54875,24.54875,0,0,0,4.21233-5.61943c.1135-.20951.21848-.428.332-.63794.20973-.41946.41072-.85642.58567-1.29337l.00853-.00854a20.76526,20.76526,0,0,0,1.10136-3.39111,24.80851,24.80851,0,0,0,.68146-5.93349V155.12768A88.85256,88.85256,0,0,0,344.05505,116.46593Zm-54.3137,262.37533a57.02781,57.02781,0,0,1-17.71427,14.1051,52.7453,52.7453,0,0,1-45.88926,0,57.0947,57.0947,0,0,1-17.70551-14.1051,62.25048,62.25048,0,0,1-11.33465-20.17855A70.533,70.533,0,0,1,193.235,335.7135V164.27775a72.31129,72.31129,0,0,1,3.86263-23.49072,61.66275,61.66275,0,0,1,11.06368-19.908,54.56191,54.56191,0,0,1,17.70552-13.82517,51.22792,51.22792,0,0,1,23.22-5.25245,52.82254,52.82254,0,0,1,15.94894,2.34225.07659.07659,0,0,1,.08726.01749,47.786,47.786,0,0,1,7.18377,2.89271,55.04354,55.04354,0,0,1,12.33956,8.31072c.05248.04395.09622.09644.14871.1485a1.87222,1.87222,0,0,1,.31449.27992,49.8933,49.8933,0,0,1,4.90254,5.086A62.15377,62.15377,0,0,1,301.076,140.787a72.78233,72.78233,0,0,1,3.86264,23.49072V337.5488a59.81593,59.81593,0,0,1-3.86264,21.38445A62.98225,62.98225,0,0,1,289.74135,378.84126Z"/></g></g></svg>