<?xml version="1.0" standalone="no"?>
<!DOCTYPE svg PUBLIC "-//W3C//DTD SVG 20010904//EN"
 "http://www.w3.org/TR/2001/REC-SVG-20010904/DTD/svg10.dtd">
<svg version="1.0" xmlns="http://www.w3.org/2000/svg"
 width="700.000000pt" height="700.000000pt" viewBox="0 0 700.000000 700.000000"
 preserveAspectRatio="xMidYMid meet">
<metadata>
Created by potrace 1.14, written by Peter Selinger 2001-2017
</metadata>
<g transform="translate(0.000000,700.000000) scale(0.100000,-0.100000)"
fill="#000000" stroke="none">
<path d="M3355 6179 c-179 -18 -335 -63 -510 -148 -403 -197 -675 -545 -762
-976 -17 -84 -18 -179 -18 -1550 0 -1384 1 -1465 19 -1560 103 -552 517 -972
1078 -1094 158 -34 319 -45 459 -32 223 21 402 71 577 161 l93 47 19 -36 c24
-49 110 -128 163 -151 92 -39 208 -33 293 16 60 34 130 116 151 177 17 50 18
142 18 1992 0 2154 5 1997 -65 2207 -153 459 -570 821 -1061 922 -158 32 -303
40 -454 25z m317 -628 c186 -48 349 -169 453 -335 55 -89 89 -169 118 -284
l22 -87 0 -1350 0 -1350 -23 -85 c-29 -108 -108 -267 -172 -347 -105 -131
-262 -232 -417 -268 -109 -26 -291 -17 -398 19 -259 89 -460 328 -525 624 -19
83 -20 143 -20 1409 0 1430 -2 1383 54 1543 89 255 301 456 544 515 88 21 274
19 364 -4z"/>
</g>
</svg>
