<svg xmlns="http://www.w3.org/2000/svg" viewBox="0 0 520 210.41887"><g id="b5053a17-e162-47f7-b44b-f1993109fef4" data-name="Layer 2"><g id="b8d389e9-9820-4970-a559-00fa45a2b2b6" data-name="Layer 5"><path d="M158,210.41886a12.679,12.679,0,0,1-9.06984-3.7791A12.29641,12.29641,0,0,1,145,197.41837V57.74329q0-12.99509-7.10451-21.61664Q130.78828,27.51,118.39525,24.48722a11.69277,11.69277,0,0,1-6.95345-4.38336,12.2,12.2,0,0,1-2.72114-7.70975A11.91736,11.91736,0,0,1,113.10451,2.72,11.42885,11.42885,0,0,1,123.23229.301a67.40566,67.40566,0,0,1,18.59337,6.19812,55.68184,55.68184,0,0,1,15.11639,11.18574A52.42187,52.42187,0,0,1,167.2209,33.25493,48.41637,48.41637,0,0,1,171,52.60411V197.41837a12.90389,12.90389,0,0,1-13,13.00049Z"/><path d="M507,210.41887a12.679,12.679,0,0,1-9.06984-3.77909A12.29643,12.29643,0,0,1,494,197.41838V57.7433q0-12.99508-7.10451-21.61664Q479.78828,27.51,467.39525,24.48723a11.69277,11.69277,0,0,1-6.95345-4.38336,12.2,12.2,0,0,1-2.72114-7.70975A11.91736,11.91736,0,0,1,462.10451,2.72,11.42887,11.42887,0,0,1,472.23229.301a67.406,67.406,0,0,1,18.59337,6.19812,55.68184,55.68184,0,0,1,15.11639,11.18574A52.422,52.422,0,0,1,516.2209,33.25494,48.41637,48.41637,0,0,1,520,52.60412V197.41838a12.90388,12.90388,0,0,1-13,13.00049Z"/><path d="M349,53.68336a48.37336,48.37336,0,0,1,4.64161-21.11168,54.40537,54.40537,0,0,1,12.27834-16.76983,58.08733,58.08733,0,0,1,78.1601,0,54.47481,54.47481,0,0,1,12.27786,16.76983A48.43588,48.43588,0,0,1,461,53.68336V156.99868a50.46443,50.46443,0,0,1-4.492,21.41193,53.586,53.586,0,0,1-29.94647,27.99975,61.65,61.65,0,0,1-43.12312,0A53.58192,53.58192,0,0,1,353.492,178.41061,50.46443,50.46443,0,0,1,349,156.99868ZM375,152.298a38.49426,38.49426,0,0,0,2.114,12.53235,33.81907,33.81907,0,0,0,6.19048,11.02246,31.06518,31.06518,0,0,0,9.66345,7.69989,28.80171,28.80171,0,0,0,25.06422,0,31.11017,31.11017,0,0,0,9.66345-7.69989,34.21385,34.21385,0,0,0,6.19048-10.87206A38.17412,38.17412,0,0,0,436,152.298V58.68429a39.54749,39.54749,0,0,0-2.114-12.83414,33.79282,33.79282,0,0,0-6.03959-10.87107,29.98968,29.98968,0,0,0-9.663-7.5495,29.46586,29.46586,0,0,0-25.36649,0,29.89169,29.89169,0,0,0-9.66345,7.5495A33.62709,33.62709,0,0,0,377.114,45.85015,39.42937,39.42937,0,0,0,375,58.68429Z"/><path d="M0,53.68336A48.37336,48.37336,0,0,1,4.64161,32.57168,54.40537,54.40537,0,0,1,16.92,15.80185,58.16883,58.16883,0,0,1,56,.67849,58.17132,58.17132,0,0,1,95.08005,15.80185a54.47481,54.47481,0,0,1,12.27786,16.76983A48.43588,48.43588,0,0,1,112,53.68336V156.99868a50.46443,50.46443,0,0,1-4.492,21.41193,53.586,53.586,0,0,1-29.94647,27.99975A59.83436,59.83436,0,0,1,56,210.30379a59.79621,59.79621,0,0,1-21.56156-3.89343A53.58192,53.58192,0,0,1,4.492,178.41061,50.46443,50.46443,0,0,1,0,156.99868ZM26,152.298a38.49426,38.49426,0,0,0,2.114,12.53235,33.81907,33.81907,0,0,0,6.19048,11.02246,31.06518,31.06518,0,0,0,9.66345,7.69989,26.97783,26.97783,0,0,0,12.53236,2.8694,27.00292,27.00292,0,0,0,12.53186-2.8694,31.11017,31.11017,0,0,0,9.66345-7.69989A34.21385,34.21385,0,0,0,84.886,164.98075,38.17412,38.17412,0,0,0,87,152.298V58.68429a39.54749,39.54749,0,0,0-2.114-12.83414,33.79282,33.79282,0,0,0-6.03959-10.87107,29.98968,29.98968,0,0,0-9.663-7.5495,27.99134,27.99134,0,0,0-12.68324-2.86939A27.96182,27.96182,0,0,0,43.817,27.42958a29.89169,29.89169,0,0,0-9.66345,7.5495A33.62709,33.62709,0,0,0,28.114,45.85015,39.42937,39.42937,0,0,0,26,58.68429Z"/><polygon points="508.75 0 508.75 1.412 510.684 1.412 510.684 6 512.09 6 512.09 1.412 514.023 1.412 514.023 0 508.75 0"/><polygon points="518.594 0 517.363 2.471 516.133 0 514.727 0 514.727 6 516.133 6 516.133 3.529 517.363 6 518.594 3.529 518.594 6 520 6 520 0 518.594 0"/><path d="M311.36314,32.62088a54.57525,54.57525,0,0,0-12.28-16.77A58.11789,58.11789,0,0,0,261.233.751h-.01c-.40991-.02-.80993-.02-1.22-.02a58.16654,58.16654,0,0,0-39.08,15.11988,54.4091,54.4091,0,0,0-12.27991,16.77A48.34336,48.34336,0,0,0,204.003,53.731V157.05081a50.52919,50.52919,0,0,0,4.49,21.41015,54.2276,54.2276,0,0,0,12.13013,16.91993A53.57618,53.57618,0,0,0,238.4431,206.461a61.69371,61.69371,0,0,0,43.12,0,55.789,55.789,0,0,0,9.24-4.53,11.378,11.378,0,0,0,.9,1.8601c.1.16992.2.33985.31994.50977a13.45435,13.45435,0,0,0,1.91,2.27,14.36171,14.36171,0,0,0,1.73,1.44018,12.60254,12.60254,0,0,0,1.38.85987l.01.01a11.98292,11.98292,0,0,0,2.26.93994,12.46888,12.46888,0,0,0,3.68994.53,13.77089,13.77089,0,0,0,3.8501-.53,11.981,11.981,0,0,0,3.88989-1.96,13.7696,13.7696,0,0,0,1.48-1.29,13.31849,13.31849,0,0,0,2.3-3.06983,11.659,11.659,0,0,0,1.11011-2.91015,13.69109,13.69109,0,0,0,.36987-3.24V53.731A48.48645,48.48645,0,0,0,311.36314,32.62088Zm-29.66,143.28a31.1056,31.1056,0,0,1-9.67005,7.7,28.78621,28.78621,0,0,1-25.06006,0,31.10361,31.10361,0,0,1-9.66992-7.7,34.014,34.014,0,0,1-6.18994-11.02,38.46412,38.46412,0,0,1-2.11011-12.53V58.731a39.44761,39.44761,0,0,1,2.11011-12.83007,33.67622,33.67622,0,0,1,6.03992-10.87012,29.85334,29.85334,0,0,1,9.67-7.54981A27.96375,27.96375,0,0,1,259.503,24.61087a28.80379,28.80379,0,0,1,8.71,1.28.044.044,0,0,1,.05.01,26.086,26.086,0,0,1,3.92005,1.58007,30.05353,30.05353,0,0,1,6.74,4.54.60081.60081,0,0,1,.07995.07984.79381.79381,0,0,1,.17005.15014,27.08426,27.08426,0,0,1,2.68,2.77979,33.872,33.872,0,0,1,6.04,10.87012A39.71966,39.71966,0,0,1,290.003,58.731v94.61988a32.64189,32.64189,0,0,1-2.10986,11.67993A34.36665,34.36665,0,0,1,281.70311,175.90091Z"/><path d="M311.36314,32.62088a54.57525,54.57525,0,0,0-12.28-16.77A58.11789,58.11789,0,0,0,261.233.751h-.01a12.15452,12.15452,0,0,0-3.11987,1.89991,11.92029,11.92029,0,0,0-4.38013,9.66992,12.14579,12.14579,0,0,0,2.7201,7.71,11.7178,11.7178,0,0,0,6.95007,4.39014,41.102,41.102,0,0,1,4.81982,1.47.044.044,0,0,1,.05.01,34.63863,34.63863,0,0,1,10.74,6.19995.79381.79381,0,0,1,.17005.15014,31.16887,31.16887,0,0,1,3.72009,3.81006q7.095,8.60963,7.10986,21.60987V197.35086a12.785,12.785,0,0,0,.8,4.58008,11.378,11.378,0,0,0,.9,1.8601c.1.16992.2.33985.31994.50977a13.45435,13.45435,0,0,0,1.91,2.27,14.36171,14.36171,0,0,0,1.73,1.44018,12.60254,12.60254,0,0,0,1.38.85987l.01.01a12.66341,12.66341,0,0,0,2.26.93994,12.46888,12.46888,0,0,0,3.68994.53,13.77089,13.77089,0,0,0,3.8501-.53,12.39077,12.39077,0,0,0,3.88989-1.96,13.7696,13.7696,0,0,0,1.48-1.29,13.31849,13.31849,0,0,0,2.3-3.06983,12.32675,12.32675,0,0,0,1.11011-2.91015,13.69109,13.69109,0,0,0,.36987-3.24V53.731A48.48645,48.48645,0,0,0,311.36314,32.62088Z"/></g></g></svg>