<svg xmlns="http://www.w3.org/2000/svg" viewBox="0 0 1211.47826 555.95001"><defs><style>.b4853eaf-4d00-4b4d-af68-a2e21881aa07{opacity:0.25;}.a89d5fea-1a4d-4992-b611-af08dc212f31,.e8c308b5-2dd3-4244-be86-5a40bd8abcbe{fill:#a62a58;}.a89d5fea-1a4d-4992-b611-af08dc212f31,.bdde20ce-1276-47b4-ba36-6236fa0c515f{opacity:0.24;}.bdde20ce-1276-47b4-ba36-6236fa0c515f,.f254c2f9-bd92-4a4a-8e7a-871d715f1475{fill:#243f66;}</style></defs><g id="f208b9b6-c331-4132-91f4-1f28e86a3ba7" data-name="Layer 2"><g id="e02e7d75-26dc-4a9b-a837-b31d1ae0d7a2" data-name="Layer 5"><g class="b4853eaf-4d00-4b4d-af68-a2e21881aa07"><path class="e8c308b5-2dd3-4244-be86-5a40bd8abcbe" d="M1125.40831,13.5a104.8803,104.8803,0,0,0-2.69006,80.23,98.78809,98.78809,0,0,0,23.42005,35.86035l65.34,65.33985v-72l-22.83-22.83008a74.64279,74.64279,0,0,1-14.64013-20.48,67.153,67.153,0,0,1-6.48-23.62989,60.88312,60.88312,0,0,1,2.72-24.04,52.89726,52.89726,0,0,1,13.38013-21.31983A55.27,55.27,0,0,1,1198.19823,0h-65.63A114.63432,114.63432,0,0,0,1125.40831,13.5Z"/><path class="a89d5fea-1a4d-4992-b611-af08dc212f31" d="M965.26818.37012a178.13811,178.13811,0,0,0-4.58,136.21q12.31512,33.41967,39.77,60.89013l211.02,211.00977V286.25l-138.85-138.8501a126.92185,126.92185,0,0,1-24.8501-34.77978,114.02283,114.02283,0,0,1-11-40.10987,103.32845,103.32845,0,0,1,4.62011-40.81005A87.38575,87.38575,0,0,1,1059.86828,0H965.43822C965.37829.12012,965.32824.25,965.26818.37012Z"/></g><g class="b4853eaf-4d00-4b4d-af68-a2e21881aa07"><path class="f254c2f9-bd92-4a4a-8e7a-871d715f1475" d="M86.07,542.45A105.21945,105.21945,0,0,0,95.4,502.43976,106.101,106.101,0,0,0,88.76,462.22a98.78806,98.78806,0,0,0-23.42-35.86035L0,361.01984v72l22.83,22.83007a74.64262,74.64262,0,0,1,14.64013,20.48,67.15264,67.15264,0,0,1,6.48,23.62988,60.88319,60.88319,0,0,1-2.72,24.04A52.89731,52.89731,0,0,1,27.85,545.31964,55.26979,55.26979,0,0,1,13.28,555.95H78.91A114.63283,114.63283,0,0,0,86.07,542.45Z"/><path class="bdde20ce-1276-47b4-ba36-6236fa0c515f" d="M246.21008,555.5799a178.16146,178.16146,0,0,0,15.84-67.91993,179.84025,179.84025,0,0,0-11.26-68.29q-12.31512-33.41967-39.77-60.89013L0,147.47V269.7l138.85,138.8501a126.92192,126.92192,0,0,1,24.85009,34.77979,114.02251,114.02251,0,0,1,11,40.10986A103.32833,103.32833,0,0,1,170.08,524.24982,87.38582,87.38582,0,0,1,151.61,555.95H246.04C246.1,555.8299,246.15,555.7,246.21008,555.5799Z"/></g></g></g></svg>