<svg xmlns="http://www.w3.org/2000/svg" viewBox="0 0 262.13481 408.47998"><defs><style>.b59001c0-093c-4ca3-9d8f-7a51c2f2feaf{opacity:0.25;}.aeae9a29-35ad-4d4c-8475-bb61edc6d976,.f5e8b3e8-07e6-499a-80e6-91bd8cba3619{fill:#243f66;}.f5e8b3e8-07e6-499a-80e6-91bd8cba3619{opacity:0.24;}</style></defs><g id="b12e9095-b80d-42a5-b45c-d5922ecc8377" data-name="Layer 2"><g id="b64f5d24-5684-483b-b531-bc9a94ab9517" data-name="Layer 5"><g class="b59001c0-093c-4ca3-9d8f-7a51c2f2feaf"><path class="aeae9a29-35ad-4d4c-8475-bb61edc6d976" d="M86.07,394.98A105.21945,105.21945,0,0,0,95.4,354.96973,106.101,106.101,0,0,0,88.76,314.75a98.78806,98.78806,0,0,0-23.42-35.86035L0,213.5498v72l22.83,22.83008a74.64258,74.64258,0,0,1,14.64013,20.48,67.15275,67.15275,0,0,1,6.48,23.62989,60.88319,60.88319,0,0,1-2.72,24.04A52.89737,52.89737,0,0,1,27.85,397.84961,55.27,55.27,0,0,1,13.28,408.48H78.91A114.63283,114.63283,0,0,0,86.07,394.98Z"/><path class="f5e8b3e8-07e6-499a-80e6-91bd8cba3619" d="M246.21008,408.10986a178.16141,178.16141,0,0,0,15.84-67.91992,179.84025,179.84025,0,0,0-11.26-68.29q-12.31512-33.41967-39.77-60.89013L0,0V122.23l138.85,138.8501a126.922,126.922,0,0,1,24.85009,34.77978,114.02262,114.02262,0,0,1,11,40.10987A103.32833,103.32833,0,0,1,170.08,376.77979,87.38591,87.38591,0,0,1,151.61,408.48H246.04C246.1,408.35986,246.15,408.23,246.21008,408.10986Z"/></g></g></g></svg>