<svg xmlns="http://www.w3.org/2000/svg" viewBox="0 0 262.13481 408.47998"><defs><style>.e242decc-8d3f-4103-bd49-746eb2e8a4f8{opacity:0.25;}.a3a27b70-6997-48e6-8501-e134eba61af7,.edb35708-a7ed-47eb-a6fb-2ade953e951c{fill:#a62a58;}.a3a27b70-6997-48e6-8501-e134eba61af7{opacity:0.24;}</style></defs><g id="f3d53a55-0bf5-4e30-a626-e5f74bd0a5c6" data-name="Layer 2"><g id="be571193-93c2-4e1c-a301-cf221c5c66ff" data-name="Layer 5"><g class="e242decc-8d3f-4103-bd49-746eb2e8a4f8"><path class="edb35708-a7ed-47eb-a6fb-2ade953e951c" d="M176.06486,13.5a104.88018,104.88018,0,0,0-2.69006,80.23,98.78793,98.78793,0,0,0,23.42,35.86035l65.34,65.33985v-72l-22.83-22.83008a74.64261,74.64261,0,0,1-14.64014-20.48,67.15318,67.15318,0,0,1-6.48-23.62989,60.88312,60.88312,0,0,1,2.72-24.04,52.89737,52.89737,0,0,1,13.38013-21.31983A55.26985,55.26985,0,0,1,248.85478,0h-65.63A114.63276,114.63276,0,0,0,176.06486,13.5Z"/><path class="a3a27b70-6997-48e6-8501-e134eba61af7" d="M15.92472.37012a178.13817,178.13817,0,0,0-4.57995,136.21q12.31512,33.41967,39.77,60.89013L262.13481,408.48V286.25l-138.85-138.8501a126.92228,126.92228,0,0,1-24.8501-34.77978,114.023,114.023,0,0,1-11-40.10987A103.32827,103.32827,0,0,1,92.05485,31.7002,87.38572,87.38572,0,0,1,110.52482,0H16.09477C16.03483.12012,15.98478.25,15.92472.37012Z"/></g></g></g></svg>